<svg width="204" height="27" viewBox="0 0 204 27" fill="none" xmlns="http://www.w3.org/2000/svg">
<path d="M11.5135 18.8676C12.86 21.1692 14.1779 23.4182 15.5489 25.7603C14.7124 25.7603 13.9657 25.7603 13.2191 25.7603C12.5866 25.7603 11.9542 25.7441 11.3218 25.7684C10.9913 25.7805 10.8158 25.6672 10.6485 25.38C9.62439 23.576 8.56353 21.7881 7.53532 19.984C7.36395 19.6847 7.18442 19.535 6.8172 19.5593C6.31533 19.5917 5.81346 19.5674 5.24631 19.5674V25.7279H0.904953V7.01585C1.08448 7.00371 1.25585 6.98349 1.42722 6.98349C3.79375 6.98349 6.16436 6.97944 8.53089 6.98349C11.5054 6.99158 13.9902 8.90081 14.8022 11.797C15.5366 14.4222 14.3575 17.1647 11.8481 18.6735C11.7583 18.7301 11.6645 18.7827 11.5135 18.8717V18.8676ZM5.23407 15.8015C6.36021 15.8015 7.42515 15.8177 8.49009 15.8015C9.68967 15.7813 10.5057 14.94 10.6485 13.6213C10.775 12.4442 10.061 11.2226 8.9634 11.0972C7.75973 10.9597 6.52342 11.0649 5.23407 11.0649C5.23407 11.2024 5.23407 11.3966 5.23407 11.5867C5.23407 12.9781 5.23407 14.3656 5.23407 15.8015Z" fill="white"/>
<path d="M165.897 13.3503C166.746 12.9377 167.517 12.4078 168.37 12.1732C171.805 11.2428 175.318 13.4352 176.2 16.9948C176.795 19.3935 176.436 21.6303 174.935 23.6407C172.833 26.4641 168.492 27.0223 165.95 24.567V25.7319H161.919V7.01583H165.901V13.3462L165.897 13.3503ZM169.169 15.7772C167.248 15.7772 165.938 17.0919 165.93 19.0294C165.917 20.9548 167.239 22.3058 169.145 22.318C171.075 22.3301 172.425 20.971 172.413 19.0254C172.401 17.0878 171.091 15.7732 169.169 15.7732V15.7772Z" fill="white"/>
<path d="M82.7949 25.7481H78.7432V24.5185C77.9639 25.2991 77.1519 25.7643 76.1972 25.9625C73.3288 26.5652 70.5868 25.3639 69.1996 22.7953C67.7552 20.1256 67.8245 17.4357 69.4607 14.8671C71.5416 11.5988 76.0543 10.9759 78.7065 13.4959V12.3835H82.7949V25.7441V25.7481ZM78.7269 19.0618C78.7269 17.0878 77.462 15.7854 75.5443 15.7773C73.5817 15.7692 72.2924 17.0717 72.2965 19.0577C72.3005 21.0115 73.5899 22.322 75.5117 22.322C77.4375 22.322 78.7269 21.0155 78.7269 19.0618Z" fill="white"/>
<path d="M154.827 13.5323V12.3916H158.826V25.7239H154.848V24.656C154.75 24.6519 154.701 24.6317 154.684 24.6479C152.347 27.0061 147.703 26.5612 145.602 23.3373C143.823 20.611 143.766 17.7714 145.431 15.0047C147.467 11.6271 152.036 10.9152 154.823 13.5363L154.827 13.5323ZM151.571 15.7773C149.649 15.7773 148.356 17.0919 148.356 19.0416C148.356 20.9872 149.654 22.3139 151.567 22.322C153.493 22.3301 154.856 20.9548 154.831 19.0213C154.807 17.0838 153.493 15.7773 151.571 15.7773Z" fill="white"/>
<path d="M43.2414 20.6434C43.4984 21.4443 43.9921 21.9499 44.6898 22.2088C46.1424 22.7468 47.546 22.7023 48.8435 21.7436C48.9618 21.6546 49.223 21.6222 49.3494 21.691C50.3328 22.2209 51.2957 22.7791 52.3158 23.3575C51.6099 24.389 50.6837 25.0969 49.5616 25.5499C46.7626 26.6785 42.7109 26.2214 40.6259 23.7661C38.7327 21.5333 38.4104 18.9849 39.41 16.3314C40.3689 13.7912 42.36 12.4159 45.0734 12.0316C48.6232 11.53 51.8139 13.6092 52.7279 16.9584C53.0298 18.0627 53.0665 19.171 52.9196 20.3036C52.8625 20.7324 52.581 20.6434 52.328 20.6474C49.5086 20.6474 46.6891 20.6474 43.8697 20.6474C43.6779 20.6474 43.4862 20.6474 43.2373 20.6474L43.2414 20.6434ZM48.8761 17.5975C48.7129 16.3881 47.5909 15.5629 46.1057 15.5346C44.6001 15.5022 43.4617 16.3072 43.2087 17.5975H48.8761Z" fill="white"/>
<path d="M29.5398 23.3575C28.8054 24.4052 27.8833 25.1697 26.7122 25.5621C23.697 26.5733 20.7959 26.4115 18.3478 24.2272C16.0751 22.2007 15.6263 19.5593 16.4913 16.7602C17.3522 13.9651 19.4046 12.4401 22.3219 12.0235C25.7738 11.53 29.0176 13.5202 29.9642 16.9705C30.2661 18.0708 30.2988 19.1872 30.1478 20.3157C30.0947 20.7081 29.8377 20.6393 29.5929 20.6393C26.8999 20.6393 24.207 20.6393 21.514 20.6393C21.1917 20.6393 20.8653 20.6393 20.5389 20.6393C20.6613 21.4928 21.5304 22.2209 22.5994 22.4231C23.8846 22.6699 25.072 22.5202 26.1247 21.687C26.2185 21.6142 26.4389 21.598 26.5449 21.6586C27.5364 22.2007 28.5157 22.767 29.5398 23.3494V23.3575ZM20.4369 17.5975H26.1002C25.9329 16.388 24.8109 15.5629 23.3257 15.5346C21.8201 15.5062 20.6694 16.3193 20.4369 17.5975Z" fill="white"/>
<path d="M128.359 23.3575C127.637 24.389 126.714 25.1009 125.584 25.554C122.793 26.6704 118.762 26.2092 116.689 23.7903C114.784 21.5656 114.449 19.0213 115.441 16.3597C116.396 13.7912 118.399 12.4118 121.137 12.0235C124.568 11.5381 127.828 13.504 128.779 16.9705C129.065 18.0182 129.105 19.0779 128.983 20.158C128.938 20.5544 128.791 20.6514 128.408 20.6514C125.662 20.6353 122.912 20.6434 120.166 20.6434C119.896 20.6434 119.627 20.6434 119.354 20.6434C119.48 21.4968 120.349 22.2249 121.414 22.4272C122.699 22.6739 123.887 22.5243 124.94 21.695C125.033 21.6222 125.254 21.6061 125.36 21.6627C126.351 22.2047 127.331 22.771 128.359 23.3535V23.3575ZM119.252 17.5975H124.915C124.756 16.3921 123.634 15.5629 122.145 15.5345C120.643 15.5022 119.484 16.3233 119.252 17.5975Z" fill="white"/>
<path d="M98.7569 25.7319H94.7664C94.7664 25.5337 94.7664 25.3436 94.7664 25.1535C94.7664 22.8317 94.7664 20.5058 94.7664 18.184C94.7664 16.3071 93.424 15.2959 91.5879 15.7692C90.5556 16.0361 89.9028 16.9098 89.8946 18.1031C89.8824 20.4451 89.8906 22.7872 89.8865 25.1252C89.8865 25.3193 89.8865 25.5095 89.8865 25.7319H85.8144V12.3835H89.862C89.8783 12.7354 89.8946 13.0792 89.911 13.508C90.7841 12.5655 91.8246 12.161 93.0038 12.0033C95.9456 11.6028 98.6304 13.6294 98.7446 16.5539C98.8671 19.5714 98.7895 22.593 98.7977 25.6146C98.7977 25.647 98.7732 25.6793 98.7487 25.74L98.7569 25.7319Z" fill="white"/>
<path d="M136.507 21.602C137.711 21.602 138.829 21.602 139.947 21.602C141.065 21.602 142.146 21.602 143.296 21.602V25.7198H132.227V7.0118H136.511V21.602H136.507Z" fill="white"/>
<path d="M114.213 15.4132C113.046 16.0806 111.908 16.7359 110.72 17.4195C110.116 16.3759 109.157 15.9067 107.986 15.9229C107.154 15.935 106.391 16.2222 105.812 16.8573C104.612 18.1638 104.743 20.3723 106.081 21.4807C107.448 22.6173 109.447 22.2937 110.749 20.6838C111.891 21.331 113.042 21.9822 114.188 22.6294C113.266 24.6762 110.545 26.5248 107.068 26.0596C103.392 25.5661 101.217 22.8034 100.956 19.7373C100.622 15.7692 103.127 12.9458 106.273 12.1691C109.41 11.3925 112.981 12.8285 114.213 15.4132Z" fill="white"/>
<path d="M57.7832 12.3795C58.7054 15.1543 59.6193 17.9089 60.5904 20.8254C60.8883 19.9436 61.1331 19.2074 61.3779 18.4752C62.0063 16.5822 62.6428 14.6891 63.2589 12.788C63.365 12.4644 63.5078 12.339 63.8628 12.3431C65.1807 12.3633 66.4986 12.3512 67.8736 12.3512C67.8288 12.521 67.8043 12.6545 67.7594 12.7759C66.2008 16.9543 64.638 21.1287 63.0835 25.3113C62.9651 25.6308 62.8223 25.7845 62.4347 25.7764C61.1902 25.7441 59.9417 25.7522 58.6931 25.7764C58.3871 25.7805 58.2484 25.6793 58.1464 25.4043C56.5714 21.1732 54.9924 16.9462 53.4133 12.7192C53.3766 12.6222 53.3644 12.517 53.3317 12.3835H57.7873L57.7832 12.3795Z" fill="white"/>
<path d="M36.5782 25.7441H32.5592V6.18662H36.5782V25.7441Z" fill="white"/>
<path d="M198.922 8.29001L203.565 0.345678H195.095C195.381 4.66571 196.384 7.04416 198.918 8.29001H198.922Z" fill="white"/>
<path d="M183.593 9.5399C186.812 14.313 188.615 19.9921 188.615 25.9221L194.54 15.7894C193.544 10.9718 190.684 9.6653 183.593 9.5399Z" fill="white"/>
<path d="M194.907 0.345678H173.661C177.705 2.65131 181.071 5.81044 183.576 9.51564C191.941 9.36597 194.426 7.58618 194.907 0.345678Z" fill="white"/>
</svg>
